<svg width="16" height="16" viewBox="0 0 16 16" fill="none" xmlns="http://www.w3.org/2000/svg">
<path d="M13.6579 11.4267L10.9479 8.96267C10.8198 8.84623 10.6515 8.78414 10.4785 8.78949C10.3055 8.79484 10.1413 8.86721 10.0206 8.99133L8.42528 10.632C8.04128 10.5587 7.26928 10.318 6.47461 9.52533C5.67994 8.73 5.43928 7.956 5.36794 7.57467L7.00728 5.97867C7.13155 5.85809 7.20403 5.69388 7.20938 5.5208C7.21474 5.34773 7.15253 5.17936 7.03594 5.05133L4.57261 2.342C4.45597 2.21357 4.29386 2.13567 4.12071 2.12484C3.94756 2.11401 3.77701 2.17111 3.64528 2.284L2.19861 3.52467C2.08335 3.64034 2.01456 3.7943 2.00528 3.95733C1.99528 4.124 1.80461 8.072 4.86594 11.1347C7.53661 13.8047 10.8819 14 11.8033 14C11.9379 14 12.0206 13.996 12.0426 13.9947C12.2056 13.9855 12.3595 13.9164 12.4746 13.8007L13.7146 12.3533C13.828 12.222 13.8855 12.0516 13.8749 11.8785C13.8643 11.7053 13.7864 11.5432 13.6579 11.4267Z" fill="#212121"/>
</svg>
