<svg width="88" height="25" viewBox="0 0 88 25" fill="none" xmlns="http://www.w3.org/2000/svg">
<circle cx="12" cy="12" r="12" fill="#2F89CE"/>
<path d="M5.61045 12.2244L8.3693 13.2532L9.44478 16.7134C9.49154 16.9472 9.77211 16.994 9.95915 16.8537L11.5022 15.5912C11.6425 15.4509 11.8763 15.4509 12.0634 15.5912L14.8222 17.6019C15.0092 17.7421 15.2898 17.6486 15.3366 17.4148L17.394 7.59519C17.4408 7.36139 17.207 7.12759 16.9732 7.22111L5.61045 11.6166C5.32988 11.7101 5.32988 12.1309 5.61045 12.2244ZM9.30451 12.7388L14.7287 9.41884C14.8222 9.37208 14.9157 9.51236 14.8222 9.55912L10.38 13.7208C10.2397 13.8611 10.0994 14.0481 10.0994 14.2819L9.95915 15.4041C9.95915 15.5444 9.72534 15.5912 9.67858 15.4041L9.11746 13.3467C8.97717 13.1129 9.07071 12.8323 9.30451 12.7388Z" fill="white"/>
<circle cx="44" cy="12" r="12" fill="#4A76A8"/>
<path d="M49.8837 15.0692C49.8837 15.0194 49.8339 15.0194 49.8339 14.9696C49.6347 14.5711 49.1863 14.0729 48.5886 13.525C48.2897 13.2759 48.1402 13.0766 48.0406 12.977C47.8912 12.7778 47.8912 12.6283 47.941 12.4291C47.9908 12.2796 48.1901 12.0305 48.5388 11.5822C48.738 11.3332 48.8376 11.1837 48.9871 11.0343C49.7343 10.038 50.083 9.39042 49.9834 9.09154L49.9335 9.04173C49.8837 8.99191 49.8339 8.9421 49.7343 8.9421C49.6347 8.89229 49.4852 8.89229 49.3358 8.9421H47.4429C47.393 8.9421 47.393 8.9421 47.2934 8.9421C47.2436 8.9421 47.1938 8.9421 47.1938 8.9421H47.144H47.0942L47.0443 8.99191C46.9945 9.04173 46.9945 9.04172 46.9945 9.09154C46.7953 9.63949 46.5462 10.0878 46.2971 10.5859C46.1477 10.835 45.9983 11.0841 45.8488 11.2833C45.6994 11.4826 45.5997 11.632 45.5001 11.7317C45.4005 11.8313 45.3009 11.8811 45.251 11.9807C45.2012 12.0306 45.1016 12.0804 45.1016 12.0306C45.0518 12.0306 45.002 12.0306 45.002 11.9807C44.9522 11.9309 44.9024 11.8811 44.8525 11.8313C44.8027 11.7815 44.8027 11.6819 44.7529 11.5822C44.7529 11.4826 44.7529 11.383 44.7529 11.3332C44.7529 11.2833 44.7529 11.1339 44.7529 11.0343C44.7529 10.8848 44.7529 10.7852 44.7529 10.7354C44.7529 10.586 44.7529 10.3867 44.7529 10.1874C44.7529 9.98819 44.7529 9.83875 44.7529 9.73912C44.7529 9.63949 44.7529 9.49005 44.7529 9.39042C44.7529 9.24098 44.7529 9.14135 44.7529 9.09154C44.7529 9.04172 44.7031 8.9421 44.7031 8.89229C44.6533 8.84247 44.6035 8.79266 44.5537 8.74284C44.5038 8.69303 44.4042 8.69303 44.3544 8.64322C44.1053 8.5934 43.8065 8.54359 43.4578 8.54359C42.6607 8.54359 42.1128 8.59341 41.9135 8.69303C41.8139 8.74285 41.7143 8.79266 41.6645 8.89229C41.5648 8.99191 41.5648 9.04173 41.6146 9.04173C41.8637 9.09154 42.063 9.19116 42.1626 9.34061L42.2124 9.44024C42.2622 9.49005 42.2622 9.58968 42.312 9.73912C42.3618 9.88856 42.3619 10.038 42.3619 10.2373C42.3619 10.5361 42.3619 10.835 42.3619 11.0343C42.3619 11.2833 42.312 11.4328 42.312 11.5822C42.312 11.7317 42.2622 11.8313 42.2124 11.8811C42.1626 11.9807 42.1626 12.0306 42.1128 12.0306C42.1128 12.0306 42.1128 12.0804 42.063 12.0804C42.0132 12.0804 41.9633 12.1302 41.8637 12.1302C41.8139 12.1302 41.7143 12.0804 41.6645 12.0306C41.5648 11.9807 41.4652 11.8811 41.4154 11.7815C41.3158 11.6819 41.2161 11.5324 41.1165 11.3332C41.0169 11.1339 40.8674 10.9346 40.7678 10.6358L40.6682 10.4365C40.6184 10.3369 40.5187 10.1376 40.4191 9.88856C40.3195 9.63949 40.2199 9.44024 40.1202 9.19117C40.0704 9.09154 40.0206 9.04173 39.9708 8.99191H39.921C39.921 8.99191 39.8712 8.9421 39.8213 8.9421C39.7715 8.9421 39.7217 8.89229 39.6719 8.89229H37.8786C37.6794 8.89229 37.5797 8.9421 37.5299 8.99191L37.4801 9.04173C37.4801 9.04173 37.4801 9.09154 37.4801 9.14135C37.4801 9.19117 37.4801 9.24098 37.5299 9.34061C37.779 9.93837 38.0779 10.5361 38.3768 11.1339C38.6756 11.6819 38.9745 12.18 39.1738 12.5287C39.4228 12.8774 39.6221 13.2261 39.8712 13.525C40.1202 13.8238 40.2697 14.0231 40.3195 14.1227C40.4191 14.2224 40.4689 14.2722 40.5187 14.322L40.6682 14.4714C40.7678 14.5711 40.9173 14.7205 41.1165 14.8699C41.3158 15.0194 41.5648 15.1688 41.8139 15.3183C42.063 15.4677 42.3619 15.5673 42.6607 15.667C43.0094 15.7666 43.3083 15.8164 43.6072 15.7666H44.3544C44.5038 15.7666 44.6035 15.7168 44.7031 15.6171L44.7529 15.5673C44.7529 15.5175 44.8027 15.5175 44.8027 15.4677C44.8027 15.4179 44.8027 15.3681 44.8027 15.2684C44.8027 15.0692 44.8027 14.9198 44.8525 14.7703C44.9024 14.6209 44.9024 14.5212 44.9522 14.4216C45.002 14.322 45.0518 14.2722 45.1016 14.2224C45.1514 14.1725 45.2012 14.1227 45.2012 14.1227H45.251C45.3507 14.0729 45.5001 14.1227 45.5997 14.2224C45.7492 14.322 45.8986 14.4714 45.9983 14.6209C46.0979 14.7703 46.2473 14.9197 46.4466 15.119C46.6458 15.3183 46.7953 15.4677 46.8949 15.5175L47.0443 15.6171C47.144 15.667 47.2436 15.7168 47.393 15.7666C47.5425 15.8164 47.6421 15.8164 47.7417 15.8164L49.4354 15.7666C49.5849 15.7666 49.7343 15.7168 49.8339 15.667C49.9335 15.6171 49.9834 15.5673 49.9834 15.4677C49.9834 15.4179 49.9834 15.3183 49.9834 15.2684C49.8837 15.1688 49.8837 15.119 49.8837 15.0692Z" fill="white"/>
<circle cx="76" cy="12.6884" r="12" fill="#48C95F"/>
<path d="M80.7561 7.9259C79.5707 6.74465 77.9902 6.0884 76.3219 6.0884C72.8537 6.0884 70.0439 8.8884 70.0439 12.3446C70.0439 13.4384 70.3512 14.5321 70.878 15.4509L70 18.6884L73.3366 17.8134C74.2585 18.2946 75.2683 18.5571 76.3219 18.5571C79.7902 18.5571 82.6 15.7571 82.6 12.3009C82.5561 10.6821 81.9415 9.10715 80.7561 7.9259ZM79.3512 14.5759C79.2195 14.9259 78.6049 15.2759 78.2976 15.3196C78.0341 15.3634 77.6829 15.3634 77.3317 15.2759C77.1122 15.1884 76.8049 15.1009 76.4537 14.9259C74.8732 14.2696 73.8634 12.6946 73.7756 12.5634C73.6878 12.4759 73.1171 11.7321 73.1171 10.9446C73.1171 10.1571 73.5122 9.80715 73.6439 9.63215C73.7756 9.45715 73.9512 9.45715 74.0829 9.45715C74.1707 9.45715 74.3024 9.45715 74.3902 9.45715C74.478 9.45715 74.6098 9.4134 74.7415 9.71965C74.8732 10.0259 75.1805 10.8134 75.2244 10.8571C75.2683 10.9446 75.2683 11.0321 75.2244 11.1196C75.1805 11.2071 75.1366 11.2946 75.0488 11.3821C74.961 11.4696 74.8732 11.6009 74.8293 11.6446C74.7415 11.7321 74.6537 11.8196 74.7415 11.9509C74.8293 12.1259 75.1366 12.6071 75.6195 13.0446C76.2341 13.5696 76.7171 13.7446 76.8927 13.8321C77.0683 13.9196 77.1561 13.8759 77.2439 13.7884C77.3317 13.7009 77.639 13.3509 77.7268 13.1759C77.8146 13.0009 77.9463 13.0446 78.078 13.0884C78.2098 13.1321 79 13.5259 79.1317 13.6134C79.3073 13.7009 79.3951 13.7446 79.439 13.7884C79.4829 13.9196 79.4829 14.2259 79.3512 14.5759Z" fill="white"/>
</svg>
