<svg width="157" height="18" viewBox="0 0 157 18" fill="none" xmlns="http://www.w3.org/2000/svg">
<path d="M24.8104 12.3693H26.3714V9.70952H29.0312V8.14844H26.3714V5.48864H24.8104V8.14844H22.1506V9.70952H24.8104V12.3693ZM31.1976 14H33.1117L37.437 5.39418V3.81818H30.5016V5.35938H35.5279V5.42898L31.1976 14ZM42.9815 8.90909C42.9815 11.3899 43.6428 13.4531 44.9503 15.223H46.6456C45.6364 13.9105 44.8558 11.2656 44.8558 8.90909C44.8558 6.54758 45.6364 3.9027 46.6456 2.5902H44.9503C43.6428 4.36008 42.9815 6.42827 42.9815 8.90909ZM47.84 12.1108H52.6973V14H54.4572V12.1108H55.7598V10.5945H54.4572V3.81818H52.1603L47.84 10.6442V12.1108ZM52.7172 10.5945H49.7292V10.5149L52.6376 5.90625H52.7172V10.5945ZM60.883 3.67898C58.6756 3.66406 57.209 5.1804 57.209 7.16903C57.214 9.08807 58.5811 10.4751 60.3659 10.4751C61.4647 10.4751 62.4192 9.94318 62.9114 9.06818H62.981C62.976 11.2457 62.1855 12.5433 60.7786 12.5433C59.8986 12.5433 59.307 12.0362 59.123 11.2259H57.3084C57.5172 12.9112 58.8496 14.1392 60.7786 14.1392C63.2196 14.1392 64.7757 12.1009 64.7708 8.59588C64.7658 4.88707 62.8368 3.68892 60.883 3.67898ZM60.888 5.17045C61.9767 5.17045 62.7772 6.07528 62.7772 7.11435C62.7821 8.16832 61.9419 9.07315 60.8681 9.07315C59.7843 9.07315 59.0037 8.21804 58.9988 7.12926C58.9988 6.03551 59.8091 5.17045 60.888 5.17045ZM69.9661 14.1392C72.1188 14.1392 73.6202 12.6776 73.6202 10.6541C73.6202 8.69531 72.258 7.28338 70.4086 7.28338C69.5833 7.28338 68.8525 7.61151 68.4746 8.05895H68.415L68.7083 5.35938H73.0882V3.81818H67.182L66.65 9.06818L68.3155 9.34162C68.6586 8.96378 69.3049 8.71023 69.9164 8.7152C71.035 8.72017 71.8404 9.54545 71.8354 10.6989C71.8404 11.8374 71.0549 12.6477 69.9661 12.6477C69.0463 12.6477 68.3056 12.0661 68.2409 11.2308H66.4512C66.5009 12.9212 67.9775 14.1392 69.9661 14.1392ZM78.5172 8.90909C78.5172 6.42827 77.856 4.36506 76.5485 2.59517H74.8532C75.8624 3.90767 76.6429 6.55256 76.6429 8.90909C76.6429 11.2706 75.8624 13.9155 74.8532 15.228H76.5485C77.856 13.4581 78.5172 11.3899 78.5172 8.90909ZM84.641 14H86.555L90.8803 5.39418V3.81818H83.945V5.35938H88.9712V5.42898L84.641 14ZM93.1312 14H95.0453L99.3706 5.39418V3.81818H92.4352V5.35938H97.4615V5.42898L93.1312 14ZM101.621 14H103.536L107.861 5.39418V3.81818H100.925V5.35938H105.952V5.42898L101.621 14ZM114.114 8.16832H109.53V9.64986H114.114V8.16832ZM119.522 3.67898C117.314 3.66406 115.848 5.1804 115.848 7.16903C115.853 9.08807 117.22 10.4751 119.005 10.4751C120.103 10.4751 121.058 9.94318 121.55 9.06818H121.62C121.615 11.2457 120.824 12.5433 119.417 12.5433C118.537 12.5433 117.946 12.0362 117.762 11.2259H115.947C116.156 12.9112 117.488 14.1392 119.417 14.1392C121.858 14.1392 123.414 12.1009 123.409 8.59588C123.404 4.88707 121.475 3.68892 119.522 3.67898ZM119.527 5.17045C120.615 5.17045 121.416 6.07528 121.416 7.11435C121.421 8.16832 120.581 9.07315 119.507 9.07315C118.423 9.07315 117.642 8.21804 117.637 7.12926C117.637 6.03551 118.448 5.17045 119.527 5.17045ZM128.794 14.1392C130.991 14.1541 132.468 12.6428 132.463 10.6293C132.468 8.70526 131.096 7.31321 129.311 7.31321C128.217 7.31321 127.252 7.84517 126.765 8.72017H126.696C126.701 6.57741 127.486 5.27486 128.898 5.27486C129.773 5.27486 130.365 5.78196 130.554 6.5625H132.368C132.15 4.9169 130.822 3.67898 128.898 3.67898C126.452 3.67898 124.906 5.71733 124.906 9.19744C124.901 12.9311 126.84 14.1293 128.794 14.1392ZM128.784 12.6477C127.695 12.6477 126.9 11.7479 126.895 10.6839C126.904 9.61506 127.73 8.72017 128.809 8.72017C129.887 8.72017 130.678 9.57528 130.673 10.669C130.678 11.7827 129.863 12.6477 128.784 12.6477ZM138.792 8.16832H134.208V9.64986H138.792V8.16832ZM144.223 14.1392C146.401 14.1392 147.987 12.8913 147.982 11.1712C147.987 9.89844 147.191 8.98366 145.764 8.77983V8.70028C146.868 8.46165 147.609 7.64134 147.604 6.49787C147.609 4.94673 146.286 3.67898 144.253 3.67898C142.274 3.67898 140.743 4.85724 140.703 6.5625H142.478C142.508 5.70739 143.303 5.17543 144.243 5.17543C145.192 5.17543 145.824 5.75213 145.819 6.60724C145.824 7.49716 145.088 8.08878 144.034 8.08878H143.134V9.51065H144.034C145.322 9.51065 146.087 10.157 146.082 11.0767C146.087 11.9766 145.307 12.593 144.218 12.593C143.194 12.593 142.403 12.0611 142.359 11.2308H140.489C140.539 12.951 142.075 14.1392 144.223 14.1392ZM150.061 14H151.975L156.3 5.39418V3.81818H149.365V5.35938H154.391V5.42898L150.061 14Z" fill="#212121"/>
<path d="M13.6579 12.4267L10.9479 9.96267C10.8198 9.84623 10.6515 9.78414 10.4785 9.78949C10.3055 9.79484 10.1413 9.86721 10.0206 9.99133L8.42528 11.632C8.04128 11.5587 7.26928 11.318 6.47461 10.5253C5.67994 9.73 5.43928 8.956 5.36794 8.57467L7.00728 6.97867C7.13155 6.85809 7.20403 6.69388 7.20939 6.5208C7.21474 6.34773 7.15253 6.17936 7.03594 6.05133L4.57261 3.342C4.45597 3.21357 4.29386 3.13567 4.12071 3.12484C3.94756 3.11401 3.77701 3.17111 3.64528 3.284L2.19861 4.52467C2.08335 4.64034 2.01456 4.7943 2.00528 4.95733C1.99528 5.124 1.80461 9.072 4.86594 12.1347C7.53661 14.8047 10.8819 15 11.8033 15C11.9379 15 12.0206 14.996 12.0426 14.9947C12.2056 14.9855 12.3595 14.9164 12.4746 14.8007L13.7146 13.3533C13.828 13.222 13.8855 13.0516 13.8749 12.8785C13.8643 12.7053 13.7864 12.5432 13.6579 12.4267V12.4267Z" fill="#212121"/>
</svg>
