<svg width="24" height="24" viewBox="0 0 24 24" fill="none" xmlns="http://www.w3.org/2000/svg">
<circle cx="12" cy="12" r="12" fill="#4A76A8"/>
<path d="M17.8837 15.0692C17.8837 15.0194 17.8339 15.0194 17.8339 14.9696C17.6347 14.5711 17.1863 14.0729 16.5886 13.525C16.2897 13.2759 16.1402 13.0766 16.0406 12.977C15.8912 12.7778 15.8912 12.6283 15.941 12.4291C15.9908 12.2796 16.1901 12.0305 16.5388 11.5822C16.738 11.3332 16.8376 11.1837 16.9871 11.0343C17.7343 10.038 18.083 9.39042 17.9834 9.09154L17.9335 9.04173C17.8837 8.99191 17.8339 8.9421 17.7343 8.9421C17.6347 8.89229 17.4852 8.89229 17.3358 8.9421H15.4429C15.393 8.9421 15.393 8.9421 15.2934 8.9421C15.2436 8.9421 15.1938 8.9421 15.1938 8.9421H15.144H15.0942L15.0443 8.99191C14.9945 9.04173 14.9945 9.04172 14.9945 9.09154C14.7953 9.63949 14.5462 10.0878 14.2971 10.5859C14.1477 10.835 13.9983 11.0841 13.8488 11.2833C13.6994 11.4826 13.5997 11.632 13.5001 11.7317C13.4005 11.8313 13.3009 11.8811 13.251 11.9807C13.2012 12.0306 13.1016 12.0804 13.1016 12.0306C13.0518 12.0306 13.002 12.0306 13.002 11.9807C12.9522 11.9309 12.9024 11.8811 12.8525 11.8313C12.8027 11.7815 12.8027 11.6819 12.7529 11.5822C12.7529 11.4826 12.7529 11.383 12.7529 11.3332C12.7529 11.2833 12.7529 11.1339 12.7529 11.0343C12.7529 10.8848 12.7529 10.7852 12.7529 10.7354C12.7529 10.586 12.7529 10.3867 12.7529 10.1874C12.7529 9.98819 12.7529 9.83875 12.7529 9.73912C12.7529 9.63949 12.7529 9.49005 12.7529 9.39042C12.7529 9.24098 12.7529 9.14135 12.7529 9.09154C12.7529 9.04172 12.7031 8.9421 12.7031 8.89229C12.6533 8.84247 12.6035 8.79266 12.5537 8.74284C12.5038 8.69303 12.4042 8.69303 12.3544 8.64322C12.1053 8.5934 11.8065 8.54359 11.4578 8.54359C10.6607 8.54359 10.1128 8.59341 9.91353 8.69303C9.8139 8.74285 9.71428 8.79266 9.66446 8.89229C9.56484 8.99191 9.56483 9.04173 9.61465 9.04173C9.86371 9.09154 10.063 9.19116 10.1626 9.34061L10.2124 9.44024C10.2622 9.49005 10.2622 9.58968 10.312 9.73912C10.3618 9.88856 10.3619 10.038 10.3619 10.2373C10.3619 10.5361 10.3619 10.835 10.3619 11.0343C10.3619 11.2833 10.312 11.4328 10.312 11.5822C10.312 11.7317 10.2622 11.8313 10.2124 11.8811C10.1626 11.9807 10.1626 12.0306 10.1128 12.0306C10.1128 12.0306 10.1128 12.0804 10.063 12.0804C10.0132 12.0804 9.96334 12.1302 9.86371 12.1302C9.8139 12.1302 9.71428 12.0804 9.66446 12.0306C9.56484 11.9807 9.46521 11.8811 9.41539 11.7815C9.31577 11.6819 9.21614 11.5324 9.11651 11.3332C9.01688 11.1339 8.86743 10.9346 8.76781 10.6358L8.66819 10.4365C8.61837 10.3369 8.51875 10.1376 8.41912 9.88856C8.31949 9.63949 8.21986 9.44024 8.12023 9.19117C8.07042 9.09154 8.02061 9.04173 7.9708 8.99191H7.92098C7.92098 8.99191 7.87116 8.9421 7.82135 8.9421C7.77153 8.9421 7.72173 8.89229 7.67191 8.89229H5.87861C5.67936 8.89229 5.57973 8.9421 5.52992 8.99191L5.4801 9.04173C5.4801 9.04173 5.4801 9.09154 5.4801 9.14135C5.4801 9.19117 5.48011 9.24098 5.52992 9.34061C5.77899 9.93837 6.07787 10.5361 6.37675 11.1339C6.67563 11.6819 6.97452 12.18 7.17377 12.5287C7.42284 12.8774 7.6221 13.2261 7.87116 13.525C8.12023 13.8238 8.26967 14.0231 8.31949 14.1227C8.41911 14.2224 8.46892 14.2722 8.51874 14.322L8.66819 14.4714C8.76782 14.5711 8.91725 14.7205 9.11651 14.8699C9.31576 15.0194 9.56483 15.1688 9.8139 15.3183C10.063 15.4677 10.3619 15.5673 10.6607 15.667C11.0094 15.7666 11.3083 15.8164 11.6072 15.7666H12.3544C12.5038 15.7666 12.6035 15.7168 12.7031 15.6171L12.7529 15.5673C12.7529 15.5175 12.8027 15.5175 12.8027 15.4677C12.8027 15.4179 12.8027 15.3681 12.8027 15.2684C12.8027 15.0692 12.8027 14.9198 12.8525 14.7703C12.9024 14.6209 12.9024 14.5212 12.9522 14.4216C13.002 14.322 13.0518 14.2722 13.1016 14.2224C13.1514 14.1725 13.2012 14.1227 13.2012 14.1227H13.251C13.3507 14.0729 13.5001 14.1227 13.5997 14.2224C13.7492 14.322 13.8986 14.4714 13.9983 14.6209C14.0979 14.7703 14.2473 14.9197 14.4466 15.119C14.6458 15.3183 14.7953 15.4677 14.8949 15.5175L15.0443 15.6171C15.144 15.667 15.2436 15.7168 15.393 15.7666C15.5425 15.8164 15.6421 15.8164 15.7417 15.8164L17.4354 15.7666C17.5849 15.7666 17.7343 15.7168 17.8339 15.667C17.9335 15.6171 17.9834 15.5673 17.9834 15.4677C17.9834 15.4179 17.9834 15.3183 17.9834 15.2684C17.8837 15.1688 17.8837 15.119 17.8837 15.0692Z" fill="white"/>
</svg>
