<svg width="24" height="25" viewBox="0 0 24 25" fill="none" xmlns="http://www.w3.org/2000/svg">
<circle cx="12" cy="12.6884" r="12" fill="#48C95F"/>
<path d="M16.7561 7.9259C15.5707 6.74465 13.9902 6.0884 12.3219 6.0884C8.85366 6.0884 6.0439 8.8884 6.0439 12.3446C6.0439 13.4384 6.35122 14.5321 6.87805 15.4509L6 18.6884L9.33659 17.8134C10.2585 18.2946 11.2683 18.5571 12.3219 18.5571C15.7902 18.5571 18.6 15.7571 18.6 12.3009C18.5561 10.6821 17.9415 9.10715 16.7561 7.9259ZM15.3512 14.5759C15.2195 14.9259 14.6049 15.2759 14.2976 15.3196C14.0341 15.3634 13.6829 15.3634 13.3317 15.2759C13.1122 15.1884 12.8049 15.1009 12.4537 14.9259C10.8732 14.2696 9.86342 12.6946 9.77561 12.5634C9.68781 12.4759 9.11707 11.7321 9.11707 10.9446C9.11707 10.1571 9.51219 9.80715 9.6439 9.63215C9.77561 9.45715 9.95122 9.45715 10.0829 9.45715C10.1707 9.45715 10.3024 9.45715 10.3902 9.45715C10.478 9.45715 10.6098 9.4134 10.7415 9.71965C10.8732 10.0259 11.1805 10.8134 11.2244 10.8571C11.2683 10.9446 11.2683 11.0321 11.2244 11.1196C11.1805 11.2071 11.1366 11.2946 11.0488 11.3821C10.961 11.4696 10.8732 11.6009 10.8293 11.6446C10.7415 11.7321 10.6537 11.8196 10.7415 11.9509C10.8293 12.1259 11.1366 12.6071 11.6195 13.0446C12.2341 13.5696 12.7171 13.7446 12.8927 13.8321C13.0683 13.9196 13.1561 13.8759 13.2439 13.7884C13.3317 13.7009 13.639 13.3509 13.7268 13.1759C13.8146 13.0009 13.9463 13.0446 14.078 13.0884C14.2098 13.1321 15 13.5259 15.1317 13.6134C15.3073 13.7009 15.3951 13.7446 15.439 13.7884C15.4829 13.9196 15.4829 14.2259 15.3512 14.5759Z" fill="white"/>
</svg>
